<svg xmlns="http://www.w3.org/2000/svg" fill="none" viewBox="0 0 512 512"><g clip-path="url(#a)"><path fill="url(#b)" d="M0 156C0 69.844 69.844 0 156 0h200c86.156 0 156 69.844 156 156v200c0 86.156-69.844 156-156 156H156C69.844 512 0 442.156 0 356V156Z"/><g fill="#1F2937" filter="url(#c)" style="mix-blend-mode:color-dodge"><path d="M267.13 178.087c2.214 0 4.338-.88 5.904-2.445a8.354 8.354 0 0 0 0-11.808 8.354 8.354 0 0 0-11.808 0 8.354 8.354 0 0 0 0 11.808 8.354 8.354 0 0 0 5.904 2.445Z"/><path d="M350.01 301.254c5.596-7.103 8.946-16.053 8.946-25.776 0-23.015-18.724-41.739-41.739-41.739v-64c0-23.015-18.724-41.739-41.738-41.739h-50.087c-17.081 0-31.79 10.318-38.244 25.044h-16.734l-14.251-14.251a8.34 8.34 0 0 0-11.805 0 8.338 8.338 0 0 0-1.809 9.097 8.336 8.336 0 0 0 1.809 2.708l10.793 10.793-10.793 10.794a8.349 8.349 0 0 0 11.806 11.805l14.251-14.251h13.238c0 23.015 18.724 41.739 41.739 41.739h8.348v22.261h-38.957c-22.95 0-41.739 18.662-41.739 41.739 0 9.723 3.351 18.673 8.947 25.776-19.324 3.645-33.991 20.64-33.991 41.007C128 365.276 146.724 384 169.739 384H342.26c23.015 0 41.739-18.724 41.739-41.739.001-20.367-14.666-37.362-33.989-41.007ZM225.392 194.783c-13.809 0-25.044-11.235-25.044-25.044 0-13.809 11.235-25.044 25.044-25.044h50.087c13.809 0 25.043 11.235 25.043 25.044v31.449c-16.33 3.328-29.223 16.22-32.551 32.551h-17.536v-30.608a8.351 8.351 0 0 0-8.348-8.348h-16.695Zm75.129 23.696v15.261h-15.259a25.157 25.157 0 0 1 15.259-15.261Zm-57.087 31.956c-3.446 9.716-12.726 16.695-23.608 16.695-10.963 0-20.221-6.907-23.635-16.695h47.243Zm-63.263 4.723c2.081 6.33 5.672 12.107 10.574 16.87 7.832 7.608 18.16 11.798 29.081 11.798 20.157 0 37.021-14.362 40.899-33.391h56.492c13.809 0 25.044 11.234 25.044 25.043s-11.235 25.043-25.044 25.043H194.783c-13.809 0-25.044-11.234-25.044-25.043 0-8.359 4.12-15.768 10.432-20.32Zm152.306 62.059c-3.446 9.717-12.725 16.696-23.607 16.696-10.883 0-20.162-6.98-23.608-16.696h47.215Zm-152.954 50.088c3.446-9.717 12.725-16.696 23.608-16.696 10.882 0 20.161 6.98 23.607 16.696h-47.215Zm162.738 0H244.03c-3.878-19.029-20.742-33.392-40.899-33.392-19.773 0-36.367 13.825-40.653 32.314-10.279-3.12-17.783-12.681-17.783-23.966 0-13.809 11.235-25.044 25.044-25.044h98.231c3.878 19.029 20.742 33.392 40.9 33.392 19.773 0 36.367-13.825 40.653-32.314 10.278 3.12 17.782 12.682 17.782 23.966 0 13.809-11.235 25.044-25.044 25.044Z"/></g></g><defs><linearGradient id="b" x1="181.76" x2="483.495" y1="0" y2="270.139" gradientUnits="userSpaceOnUse"><stop stop-color="#7E3AED"/><stop offset=".988" stop-color="#4F46E5"/></linearGradient><clipPath id="a"><path fill="#fff" d="M0 0h512v512H0z"/></clipPath><filter id="c" width="415.999" height="416" x="48" y="48" color-interpolation-filters="sRGB" filterUnits="userSpaceOnUse"><feFlood flood-opacity="0" result="BackgroundImageFix"/><feColorMatrix in="SourceAlpha" result="hardAlpha" values="0 0 0 0 0 0 0 0 0 0 0 0 0 0 0 0 0 0 127 0"/><feOffset dx="-20" dy="-20"/><feGaussianBlur stdDeviation="30"/><feColorMatrix values="0 0 0 0 0.121569 0 0 0 0 0.160784 0 0 0 0 0.215686 0 0 0 0.5 0"/><feBlend in2="BackgroundImageFix" result="effect1_dropShadow_401_3"/><feColorMatrix in="SourceAlpha" result="hardAlpha" values="0 0 0 0 0 0 0 0 0 0 0 0 0 0 0 0 0 0 127 0"/><feOffset dx="20" dy="20"/><feGaussianBlur stdDeviation="30"/><feColorMatrix values="0 0 0 0 0.121569 0 0 0 0 0.160784 0 0 0 0 0.215686 0 0 0 0.25 0"/><feBlend in2="effect1_dropShadow_401_3" result="effect2_dropShadow_401_3"/><feBlend in="SourceGraphic" in2="effect2_dropShadow_401_3" result="shape"/></filter></defs></svg>